<?xml version="1.0" encoding="UTF-8"?>
<svg width="16px" height="16px" viewBox="0 0 16 16" version="1.1" xmlns="http://www.w3.org/2000/svg" xmlns:xlink="http://www.w3.org/1999/xlink">
    <!-- Generator: Sketch 60.1 (88133) - https://sketch.com -->
    <title>icon/chart-type/16/gauge</title>
    <desc>Created with Sketch.</desc>
    <defs>
        <polygon id="path-1" points="0 0 16 0 16 16 0 16"></polygon>
    </defs>
    <g id="icon/chart-type/16/gauge" stroke="none" stroke-width="1" fill="none" fill-rule="evenodd">
        <g id="icon_chart_gauge">
            <mask id="mask-2" fill="white">
                <use xlink:href="#path-1"></use>
            </mask>
            <g id="Bounds"></g>
        </g>
        <path d="M15,12 C15,8.13400675 11.8659932,5 8,5 C4.13400675,5 1,8.13400675 1,12" id="Path" stroke="#7B8998"></path>
        <g id="Segments-circle" transform="translate(1.000000, 6.000000)">
            <path d="M7,0 C9.14,0 11.13,1.14 12.2,3 C13.27,4.86 13.27,7.14 12.2,9 C11.13,10.86 9.14,12 7,12 C4.86,12 2.87,10.86 1.8,9 C0.73,7.14 0.73,4.86 1.8,3 C2.87,1.14 4.86,0 7,0 L7,3 C5.93,3 4.94,3.57 4.4,4.5 C3.86,5.43 3.86,6.57 4.4,7.5 C4.94,8.43 5.93,9 7,9 C8.07,9 9.06,8.43 9.6,7.5 C10.14,6.57 10.14,5.43 9.6,4.5 C9.06,3.57 8.07,3 7,3 L7,0 Z" id="Base-plate" fill-opacity="0.002" fill="#455A64"></path>
            <path d="M1,6 C1,3.86 2.14,1.87 4,0.8 C4.91,0.27 5.95,0 7,0 L7,3 C5.93,3 4.94,3.57 4.4,4.5 C4.14,4.96 4,5.47 4,6 L1,6 Z" id="Segment-4" fill="#7B8998"></path>
        </g>
    </g>
</svg>